<svg width="320" height="342" viewBox="0 0 320 342" fill="none" xmlns="http://www.w3.org/2000/svg">
<path d="M240.78 330.361C240.304 330.064 239.989 329.576 239.754 329.128C239.544 328.723 239.352 328.314 239.162 327.897C238.859 327.232 238.62 326.549 238.38 325.874C237.907 324.578 237.461 323.273 236.906 321.99C236.294 320.605 235.681 319.226 235.106 317.834C234.633 316.696 234.228 315.527 233.964 314.351C233.528 312.423 233.657 310.413 234.179 308.56C234.716 306.681 235.691 304.909 236.944 303.346C237.522 302.626 238.183 301.969 238.927 301.374C239.629 300.808 240.467 300.384 241.321 300.008C243.19 299.192 245.317 298.8 247.448 298.8C248.534 298.804 249.621 298.929 250.696 299.111C251.864 299.305 253.006 299.705 254.08 300.18C255.488 300.801 256.737 301.682 257.973 302.545C259.003 303.267 259.96 304.086 260.818 304.967C261.682 305.857 262.406 306.837 263.14 307.805C263.601 308.421 264.063 309.038 264.524 309.654C265.148 310.486 265.795 311.292 266.459 312.102C267.277 313.004 268.126 313.883 269.005 314.746C269.297 315.011 269.59 315.269 269.892 315.528C270.214 315.814 270.569 316.07 270.904 316.336C271.661 316.872 272.412 317.392 273.227 317.858C273.86 318.195 274.508 318.505 275.171 318.781C276.127 319.156 277.094 319.436 278.081 319.705C278.603 319.83 279.127 319.941 279.658 320.023C280.232 320.107 280.795 320.158 281.373 320.183C281.894 320.188 282.401 320.175 282.913 320.14C283.436 320.093 283.948 320.013 284.456 319.917C285.021 319.796 285.574 319.65 286.123 319.48C286.676 319.289 287.208 319.078 287.736 318.844C288.288 318.577 288.829 318.285 289.34 317.965C289.805 317.657 290.258 317.324 290.688 316.979C291.047 316.679 291.376 316.357 291.698 316.027C292.018 315.666 292.305 315.298 292.57 314.91C292.781 314.571 292.976 314.221 293.147 313.866C293.297 313.53 293.42 313.195 293.528 312.849C293.614 312.521 293.684 312.19 293.729 311.854C293.787 311.377 293.801 310.899 293.8 310.41C293.782 309.797 293.72 309.182 293.633 308.569C293.633 308.569 293.633 308.569 293.634 308.562C293.521 307.944 293.4 307.324 293.252 306.706C293.091 306.071 292.9 305.451 292.693 304.828C292.51 304.376 292.343 303.934 292.168 303.484C291.998 303.057 291.779 302.649 291.581 302.231C290.75 300.649 289.853 299.091 289.039 297.512C288.619 296.701 288.25 295.856 287.867 295.031C287.52 294.288 287.173 293.545 286.817 292.8C286.417 292.016 286.016 291.24 285.567 290.483C285.369 290.148 285.168 289.819 284.96 289.489C284.377 289.78 283.788 290.054 283.201 290.321C281.885 290.907 280.563 291.523 279.059 291.686C278.231 291.774 277.406 291.644 276.633 291.308C275.933 291.002 275.445 290.387 275.204 289.757C274.881 288.899 274.916 287.952 274.963 287.074C274.998 286.374 275.137 285.674 275.282 284.99C275.548 283.648 275.83 282.316 276.163 280.988C276.285 280.495 276.4 279.992 276.562 279.515C276.783 278.84 277.071 278.014 277.927 277.789C278.305 277.688 278.67 277.652 279.059 277.787C279.286 277.865 279.487 277.983 279.672 278.135C279.873 278.132 280.067 278.159 280.271 278.224C281.182 278.522 282.069 278.853 282.953 279.198C283.466 279.404 283.997 279.607 284.494 279.847C285.157 280.168 285.815 280.51 286.494 280.797C286.823 280.926 287.157 281.035 287.492 281.136C288.376 281.36 289.281 281.521 290.185 281.69C290.528 281.755 290.871 281.82 291.215 281.878C291.911 282.002 292.593 282.109 293.237 282.396C293.946 282.704 294.348 283.436 294.209 284.091C294.092 284.645 293.579 284.973 293.067 285.255C292.435 285.611 291.789 285.948 291.137 286.276C290.514 286.588 289.878 286.882 289.261 287.21C288.663 287.528 288.072 287.854 287.483 288.173C287.842 288.738 288.184 289.299 288.505 289.878C289.266 291.258 289.942 292.664 290.598 294.089C290.975 294.898 291.352 295.707 291.737 296.518C293.103 299.146 294.739 301.696 295.638 304.474C295.758 304.852 295.885 305.24 296.005 305.619C296.137 306.023 296.206 306.436 296.312 306.842C296.386 307.151 296.433 307.462 296.49 307.767C296.596 308.376 296.695 308.976 296.748 309.589C296.911 311.451 296.713 313.335 295.911 315.03C295.123 316.699 293.879 318.097 292.364 319.296C290.901 320.453 289.148 321.339 287.287 321.953C285.286 322.612 283.177 322.881 280.996 322.788C279.392 322.719 277.837 322.338 276.3 321.915C274.575 321.437 272.956 320.741 271.417 319.874C270.453 319.332 269.529 318.685 268.672 318.007C268.032 317.496 267.384 316.983 266.799 316.415C265.63 315.281 264.525 314.129 263.507 312.899C261.998 311.068 260.708 309.103 259.188 307.285C258.79 306.824 258.362 306.38 257.904 305.953C257.361 305.477 256.785 305.032 256.21 304.586C255.369 303.995 254.526 303.418 253.624 302.911C253.194 302.685 252.76 302.473 252.304 302.286C251.941 302.149 251.584 302.029 251.217 301.913C250.788 301.8 250.356 301.709 249.911 301.63C249.244 301.534 248.58 301.468 247.916 301.441C247.405 301.43 246.906 301.445 246.402 301.481C245.93 301.532 245.463 301.606 245.001 301.689C244.554 301.79 244.111 301.907 243.673 302.047C243.223 302.2 242.797 302.366 242.366 302.553C242.085 302.689 241.82 302.829 241.553 302.983C241.291 303.153 241.035 303.332 240.795 303.522C240.467 303.798 240.161 304.095 239.869 304.402C239.412 304.921 238.992 305.464 238.611 306.031C238.647 305.986 238.674 305.939 238.712 305.886C238.325 306.481 237.978 307.092 237.68 307.721C237.449 308.237 237.253 308.752 237.087 309.288C236.943 309.807 236.833 310.325 236.765 310.852C236.715 311.338 236.684 311.813 236.685 312.302C236.705 312.742 236.743 313.179 236.807 313.614C236.909 314.162 237.048 314.695 237.213 315.234C237.201 315.208 237.197 315.185 237.193 315.162C237.204 315.194 237.216 315.219 237.218 315.25C237.225 315.259 237.223 315.266 237.23 315.275C237.237 315.284 237.235 315.291 237.235 315.291C237.615 316.417 238.082 317.538 238.561 318.647C239 319.658 239.483 320.662 239.902 321.684C240.707 323.674 241.32 325.714 242.216 327.686C242.335 327.907 242.443 328.133 242.58 328.35C242.594 328.368 242.599 328.384 242.614 328.394C243.129 328.842 243.245 329.566 242.848 330.083C242.505 330.515 241.893 330.694 241.31 330.57C241.134 330.541 240.948 330.471 240.78 330.361ZM278.611 283.852C278.395 284.829 278.19 285.801 278.024 286.789C277.979 287.291 277.937 287.778 277.944 288.276C277.953 288.443 277.968 288.62 277.994 288.783C278.009 288.876 278.032 288.972 278.057 289.06C278.09 289.067 278.115 289.072 278.149 289.079C278.2 289.082 278.252 289.086 278.311 289.091C278.389 289.092 278.469 289.087 278.548 289.081C278.656 289.066 278.764 289.051 278.871 289.036C279.135 288.979 279.386 288.905 279.645 288.831C280.508 288.533 281.329 288.15 282.153 287.79C282.589 287.581 283.017 287.364 283.445 287.153C283.264 286.897 283.083 286.641 282.893 286.39C282.383 285.718 281.861 285.058 281.321 284.403C280.581 283.502 279.861 282.59 279.112 281.687C278.927 282.4 278.764 283.125 278.611 283.852ZM283.376 282.544C284.269 283.627 285.153 284.71 285.939 285.846C286.342 285.63 286.744 285.415 287.146 285.199C287.824 284.831 288.523 284.49 289.213 284.147C288.602 284.033 287.983 283.917 287.367 283.786C286.101 283.519 284.942 282.995 283.8 282.43C283.525 282.289 283.239 282.161 282.962 282.035C283.098 282.214 283.237 282.379 283.376 282.544Z" fill="#333333" fill-opacity="0.5"/>
<path d="M287.353 256.891L285.768 255.68C306.855 227.994 318.005 194.92 318.005 160.019C318.005 105.952 290.802 56.2109 245.234 26.959L246.316 25.281C292.462 54.8872 320 105.262 320 160.019C320 195.349 308.701 228.851 287.353 256.891Z" fill="#65CCE1"/>
<path d="M160.009 320C71.7823 320 0 248.222 0 160C0 71.7781 71.7823 0 160.009 0V1.99486C72.8824 1.99486 2.01364 72.8781 2.01364 159.981C2.01364 247.103 72.901 317.968 160.009 317.968C186.336 317.968 212.401 311.368 235.371 298.877L236.322 300.629C213.054 313.326 186.653 320 160.009 320Z" fill="#65CCE1"/>
<path d="M84.2925 283.16C41.1858 256.612 15.4561 210.562 15.4561 160H19.4647C19.4647 209.163 44.4859 253.927 86.3993 279.748L84.2925 283.16Z" fill="#65CCE1"/>
<path d="M160.01 304.563C144.162 304.563 128.593 302.009 113.715 296.994L115.001 293.209C129.47 298.094 144.609 300.573 160.028 300.573C232.426 300.573 292.555 246.339 299.845 174.412L303.835 174.822C296.303 248.763 234.477 304.563 160.01 304.563Z" fill="#65CCE1"/>
<path d="M298.763 137.553C293.524 104.945 276.781 75.0595 251.592 53.4142C226.142 31.5265 193.607 19.4827 160.009 19.4827C132.881 19.4827 106.555 27.2198 83.864 41.8737C57.4258 58.9513 37.2521 84.6796 27.0534 114.323L23.2686 113.018C33.7469 82.5356 54.4985 56.0802 81.6826 38.5178C105.026 23.4538 132.098 15.4929 159.991 15.4929C194.558 15.4929 228.007 27.8909 254.184 50.3938C280.081 72.6544 297.309 103.398 302.698 136.938L298.763 137.553Z" fill="#65CCE1"/>
<path d="M160.009 264.405C102.434 264.405 55.5986 217.572 55.5986 160C55.5986 136.695 63.1125 114.659 77.3011 96.2759L80.4707 98.7182C66.8228 116.411 59.6072 137.59 59.6072 160C59.6072 215.353 104.653 260.396 160.009 260.396C169.835 260.396 179.549 258.979 188.853 256.183L190.009 260.023C180.313 262.95 170.208 264.405 160.009 264.405Z" fill="#65CCE1"/>
<path d="M230.524 236.998L227.82 234.053C248.535 215.073 260.411 188.096 260.411 160.019C260.411 140.256 254.669 121.128 243.817 104.703L247.155 102.503C258.454 119.581 264.42 139.473 264.42 160.037C264.401 189.215 252.059 217.273 230.524 236.998Z" fill="#65CCE1"/>
<path d="M222.47 81.3984C204.552 67.136 182.943 59.604 160.01 59.604C139.892 59.604 120.483 65.5327 103.87 76.7562L101.633 73.4376C118.898 61.7667 139.09 55.6143 160.01 55.6143C183.875 55.6143 206.342 63.4446 224.968 78.285L222.47 81.3984Z" fill="#65CCE1"/>
<path d="M160.009 246.469C145.951 246.469 131.986 243.02 119.644 236.495L120.576 234.724C132.639 241.1 146.268 244.474 159.991 244.474C197.896 244.474 231.382 218.988 241.431 182.484L243.352 183.025C233.097 220.387 198.809 246.469 160.009 246.469Z" fill="#65CCE1"/>
<path d="M98.8734 221.17C82.5406 204.838 73.5352 183.118 73.5352 160.019C73.5352 112.347 112.316 73.5493 160.01 73.5493C207.684 73.5493 246.484 112.347 246.484 160.019H244.489C244.489 113.447 206.603 75.5628 160.028 75.5628C113.454 75.5628 75.5674 113.447 75.5674 160.019C75.5674 182.578 84.3491 203.794 100.328 219.753L98.8734 221.17Z" fill="#65CCE1"/>
<path d="M160.009 213.787C130.345 213.787 106.219 189.662 106.219 160C106.219 130.338 130.345 106.213 160.009 106.213V110.222C132.564 110.222 110.227 132.557 110.227 160C110.227 187.444 132.564 209.779 160.009 209.779C187.454 209.779 209.79 187.444 209.79 160H213.799C213.78 189.662 189.654 213.787 160.009 213.787Z" fill="#65CCE1"/>
<path d="M160.009 186.735C145.261 186.735 133.272 174.747 133.272 160H135.267C135.267 173.628 146.361 184.721 159.99 184.721C173.62 184.721 184.713 173.628 184.713 160C184.713 146.371 173.62 135.278 159.99 135.278C152.421 135.278 145.373 138.672 140.637 144.6L139.071 143.351C144.18 136.938 151.805 133.265 159.99 133.265C174.738 133.265 186.727 145.253 186.727 160C186.727 174.747 174.738 186.735 160.009 186.735Z" fill="#65CCE1"/>
</svg>
